<svg width="292" height="58" viewBox="0 0 292 58" fill="none" xmlns="http://www.w3.org/2000/svg">
<path d="M42.4271 1.20117L4.18994 21.7068L42.4271 42.2137L80.6629 21.7068L42.4271 1.20117Z" fill="#BDD85E" stroke="white" stroke-width="1.73021" stroke-linecap="round" stroke-linejoin="round"/>
<path d="M70.5507 32.3115V41.7332L42.4593 56.7989H42.4266L14.334 41.7332V32.3115" stroke="white" stroke-width="1.88887" stroke-linecap="round" stroke-linejoin="round"/>
<path d="M8.37779 56.799H0V32.6806L4.18952 26.334L8.37779 32.6806V56.799Z" fill="#BDD85E"/>
<path d="M76.4438 52.5807V27.125" stroke="white" stroke-width="1.73021" stroke-linecap="round" stroke-linejoin="round"/>
<path d="M72.2256 56.7995L76.4441 52.5811L80.6626 56.7995H72.2256Z" stroke="white" stroke-width="1.63702" stroke-linecap="round" stroke-linejoin="round"/>
<path d="M112.676 27.5801H109.639V20.1833H101.345V27.5801H98.296V10.5298H101.345V17.6193H109.639V10.5298H112.676V27.5801ZM121.112 27.7691C117.308 27.7691 114.897 25.2405 114.897 21.1168C114.897 17.0403 117.331 14.4881 121.112 14.4881C124.917 14.4881 127.339 17.0285 127.339 21.1168C127.339 25.2405 124.941 27.7691 121.112 27.7691ZM121.112 25.4178C123.145 25.4178 124.35 23.8344 124.35 21.1286C124.35 18.4228 123.133 16.8395 121.112 16.8395C119.104 16.8395 117.887 18.4346 117.887 21.1286C117.887 23.8344 119.104 25.4178 121.112 25.4178ZM129.313 27.5801V14.6653H132.137V16.9103H132.196C132.609 15.3979 133.767 14.5235 135.292 14.5235C135.681 14.5235 136.012 14.5708 136.237 14.6417V17.3121C135.989 17.2176 135.528 17.1467 135.02 17.1467C133.295 17.1467 132.255 18.2692 132.255 20.0888V27.5801H129.313ZM137.903 27.5801V14.6653H140.845V27.5801H137.903ZM139.368 13.0229C138.458 13.0229 137.714 12.314 137.714 11.4042C137.714 10.4825 138.458 9.78538 139.368 9.78538C140.29 9.78538 141.022 10.4825 141.022 11.4042C141.022 12.314 140.29 13.0229 139.368 13.0229ZM143.185 27.5801V25.7841L149.931 17.0285V16.9694H143.255V14.6653H153.311V16.6268L146.824 25.2287V25.276H153.417V27.5801H143.185ZM161.003 27.7691C157.198 27.7691 154.788 25.2405 154.788 21.1168C154.788 17.0403 157.222 14.4881 161.003 14.4881C164.808 14.4881 167.23 17.0285 167.23 21.1168C167.23 25.2405 164.831 27.7691 161.003 27.7691ZM161.003 25.4178C163.035 25.4178 164.24 23.8344 164.24 21.1286C164.24 18.4228 163.023 16.8395 161.003 16.8395C158.994 16.8395 157.777 18.4346 157.777 21.1286C157.777 23.8344 158.994 25.4178 161.003 25.4178ZM169.203 27.5801V14.6653H172.027V16.9103H172.086C172.854 15.3388 174.154 14.5117 176.139 14.5117C178.998 14.5117 180.629 16.3196 180.629 19.309V27.5801H177.687V19.8879C177.687 18.0447 176.812 17.0049 175.04 17.0049C173.232 17.0049 172.145 18.281 172.145 20.1715V27.5801H169.203ZM199.877 27.5801L198.424 23.1728H192.149L190.696 27.5801H187.553L193.603 10.5298H197.041L203.091 27.5801H199.877ZM195.245 13.5428L192.858 20.8214H197.703L195.328 13.5428H195.245ZM215.58 19.2381H212.804C212.591 17.8793 211.575 16.8867 209.921 16.8867C207.983 16.8867 206.718 18.5173 206.718 21.1168C206.718 23.799 207.995 25.3705 209.932 25.3705C211.504 25.3705 212.544 24.5552 212.815 23.09H215.592C215.344 25.914 213.134 27.7691 209.909 27.7691C206.163 27.7691 203.729 25.2405 203.729 21.1168C203.729 17.0758 206.151 14.4881 209.885 14.4881C213.264 14.4881 215.379 16.5795 215.58 19.2381ZM222.079 25.465C223.863 25.465 225.222 24.3543 225.222 22.7828V21.8021L222.268 21.9912C220.661 22.0975 219.81 22.7119 219.81 23.7636C219.81 24.8033 220.708 25.465 222.079 25.465ZM221.216 27.7219C218.676 27.7219 216.856 26.174 216.856 23.8817C216.856 21.5776 218.617 20.2661 221.866 20.0652L225.222 19.8643V18.919C225.222 17.5484 224.3 16.804 222.717 16.804C221.382 16.804 220.425 17.5011 220.224 18.5409H217.506C217.577 16.1778 219.775 14.4881 222.812 14.4881C226.037 14.4881 228.129 16.166 228.129 18.73V27.5801H225.305V25.5005H225.234C224.525 26.8829 222.93 27.7219 221.216 27.7219ZM235.431 27.7219C232.205 27.7219 230.055 25.1342 230.055 21.1168C230.055 17.1112 232.217 14.5235 235.419 14.5235C237.286 14.5235 238.739 15.4097 239.437 16.8395H239.507V9.73812H242.45V27.5801H239.567V25.3823H239.507C238.81 26.8239 237.322 27.7219 235.431 27.7219ZM236.294 16.9694C234.344 16.9694 233.068 18.6 233.068 21.1286C233.068 23.669 234.344 25.276 236.294 25.276C238.243 25.276 239.519 23.6336 239.519 21.1286C239.519 18.6355 238.231 16.9694 236.294 16.9694ZM250.567 16.7804C248.842 16.7804 247.59 18.0329 247.46 19.8761H253.58C253.521 18.0092 252.316 16.7804 250.567 16.7804ZM253.592 23.7399H256.357C255.979 26.1267 253.687 27.7691 250.673 27.7691C246.857 27.7691 244.494 25.2405 244.494 21.1759C244.494 17.1112 246.869 14.4881 250.567 14.4881C254.183 14.4881 256.475 16.9576 256.475 20.8687V21.8376H247.436V22.0148C247.436 24.0944 248.759 25.4769 250.733 25.4769C252.15 25.4769 253.249 24.8033 253.592 23.7399ZM258.46 27.5801V14.6653H261.284V16.934H261.343C261.91 15.4334 263.316 14.5117 265.018 14.5117C266.838 14.5117 268.149 15.4334 268.634 17.0758H268.693C269.319 15.4924 270.867 14.5117 272.722 14.5117C275.262 14.5117 276.94 16.2132 276.94 18.7891V27.5801H273.998V19.5098C273.998 17.9029 273.147 16.9931 271.635 16.9931C270.158 16.9931 269.13 18.0919 269.13 19.6634V27.5801H266.27V19.3444C266.27 17.8911 265.372 16.9931 263.943 16.9931C262.454 16.9931 261.402 18.1392 261.402 19.7343V27.5801H258.46ZM280.792 32.2828C280.615 32.2828 279.811 32.2592 279.634 32.2237V29.8842C279.8 29.9196 280.249 29.9314 280.438 29.9314C281.69 29.9314 282.387 29.447 282.754 28.23L282.919 27.6273L278.299 14.6653H281.501L284.597 25.0397H284.656L287.74 14.6653H290.847L286.168 28.0291C285.069 31.2075 283.687 32.2828 280.792 32.2828Z" fill="white"/>
<path d="M98.5032 50.4199H97.6462V41.3264H98.5032V50.4199ZM100.104 50.4199V43.6329H100.885V44.8995H100.91C101.289 44.0551 102.051 43.5573 103.148 43.5573C104.641 43.5573 105.555 44.5151 105.555 46.0528V50.4199H104.723V46.1851C104.723 44.9878 104.068 44.3009 102.914 44.3009C101.705 44.3009 100.936 45.1642 100.936 46.4309V50.4199H100.104ZM106.885 45.4604C106.885 44.3387 107.924 43.5573 109.323 43.5573C110.697 43.5573 111.693 44.3765 111.762 45.5423H110.962C110.88 44.7735 110.256 44.2631 109.298 44.2631C108.391 44.2631 107.71 44.7294 107.71 45.4163C107.71 45.9709 108.113 46.2922 108.977 46.5065L110.017 46.7586C111.378 47.0989 111.895 47.5904 111.895 48.5546C111.895 49.7015 110.804 50.4955 109.279 50.4955C107.824 50.4955 106.777 49.6637 106.683 48.5105H107.527C107.628 49.2856 108.302 49.796 109.33 49.796C110.344 49.796 111.05 49.3297 111.05 48.6113C111.05 48.0378 110.703 47.7228 109.783 47.4959L108.636 47.206C107.464 46.9098 106.885 46.3553 106.885 45.4604ZM116.218 43.5573C117.932 43.5573 119.11 44.9563 119.11 47.0233C119.11 49.0965 117.938 50.4955 116.23 50.4955C115.14 50.4955 114.289 49.9032 113.911 49.0209H113.892V52.6697H113.06V43.6329H113.848V45.0382H113.867C114.226 44.1748 115.14 43.5573 116.218 43.5573ZM116.073 49.7456C117.383 49.7456 118.259 48.6617 118.259 47.0296C118.259 45.3974 117.383 44.3009 116.073 44.3009C114.781 44.3009 113.886 45.4163 113.886 47.0233C113.886 48.6428 114.781 49.7456 116.073 49.7456ZM120.333 50.4199V43.6329H121.164V50.4199H120.333ZM120.749 42.2906C120.44 42.2906 120.181 42.0322 120.181 41.7297C120.181 41.4147 120.44 41.1626 120.749 41.1626C121.057 41.1626 121.309 41.4147 121.309 41.7297C121.309 42.0322 121.057 42.2906 120.749 42.2906ZM122.727 50.4199V43.6329H123.509V44.8365H123.534C123.767 44.0299 124.41 43.5573 125.254 43.5573C125.475 43.5573 125.677 43.5951 125.784 43.6266V44.4521C125.67 44.4017 125.431 44.3576 125.141 44.3576C124.177 44.3576 123.559 45.1138 123.559 46.2103V50.4199H122.727ZM126.786 50.4199V43.6329H127.617V50.4199H126.786ZM127.202 42.2906C126.893 42.2906 126.634 42.0322 126.634 41.7297C126.634 41.4147 126.893 41.1626 127.202 41.1626C127.51 41.1626 127.762 41.4147 127.762 41.7297C127.762 42.0322 127.51 42.2906 127.202 42.2906ZM129.18 50.4199V43.6329H129.962V44.8995H129.987C130.365 44.0551 131.128 43.5573 132.224 43.5573C133.718 43.5573 134.631 44.5151 134.631 46.0528V50.4199H133.8V46.1851C133.8 44.9878 133.144 44.3009 131.991 44.3009C130.781 44.3009 130.012 45.1642 130.012 46.4309V50.4199H129.18ZM138.772 49.7015C140.082 49.7015 140.977 48.605 140.977 47.0107C140.977 45.4037 140.082 44.3009 138.772 44.3009C137.474 44.3009 136.61 45.3848 136.61 47.0107C136.61 48.6302 137.474 49.7015 138.772 49.7015ZM138.828 52.7831C137.329 52.7831 136.264 52.0836 136.093 51.0438H136.963C137.127 51.6488 137.864 52.0521 138.879 52.0521C140.139 52.0521 140.977 51.403 140.977 50.3569V48.9768H140.958C140.58 49.8528 139.711 50.4514 138.627 50.4514C136.919 50.4514 135.759 49.065 135.759 47.0107C135.759 44.9374 136.919 43.5573 138.646 43.5573C139.73 43.5573 140.605 44.1496 141.003 45.0382H141.015V43.6329H141.809V50.2939C141.809 51.8504 140.643 52.7831 138.828 52.7831ZM155.03 41.3264V50.4199H154.224V42.9586H154.186L151.022 50.3758H150.272L147.115 42.9586H147.077V50.4199H146.271V41.3264H147.26L150.632 49.2856H150.669L154.035 41.3264H155.03ZM156.694 50.4199V43.6329H157.526V50.4199H156.694ZM157.11 42.2906C156.801 42.2906 156.543 42.0322 156.543 41.7297C156.543 41.4147 156.801 41.1626 157.11 41.1626C157.419 41.1626 157.671 41.4147 157.671 41.7297C157.671 42.0322 157.419 42.2906 157.11 42.2906ZM159.089 50.4199V43.6329H159.87V44.8995H159.895C160.273 44.0551 161.036 43.5573 162.132 43.5573C163.626 43.5573 164.54 44.5151 164.54 46.0528V50.4199H163.708V46.1851C163.708 44.9878 163.052 44.3009 161.899 44.3009C160.689 44.3009 159.92 45.1642 159.92 46.4309V50.4199H159.089ZM168.573 50.4955C166.871 50.4955 165.668 49.0965 165.668 47.0233C165.668 44.95 166.865 43.5573 168.554 43.5573C169.65 43.5573 170.52 44.1496 170.886 45.0256H170.905V40.9294H171.743V50.4199H170.949V48.9768H170.93C170.539 49.8969 169.676 50.4955 168.573 50.4955ZM168.705 44.3009C167.407 44.3009 166.518 45.3911 166.518 47.0233C166.518 48.6617 167.407 49.7456 168.705 49.7456C170.01 49.7456 170.911 48.6428 170.911 47.0233C170.911 45.4163 170.01 44.3009 168.705 44.3009ZM173.167 45.4604C173.167 44.3387 174.207 43.5573 175.606 43.5573C176.979 43.5573 177.975 44.3765 178.044 45.5423H177.244C177.162 44.7735 176.538 44.2631 175.58 44.2631C174.673 44.2631 173.992 44.7294 173.992 45.4163C173.992 45.9709 174.396 46.2922 175.259 46.5065L176.299 46.7586C177.66 47.0989 178.177 47.5904 178.177 48.5546C178.177 49.7015 177.087 50.4955 175.562 50.4955C174.106 50.4955 173.06 49.6637 172.965 48.5105H173.81C173.91 49.2856 174.585 49.796 175.612 49.796C176.627 49.796 177.332 49.3297 177.332 48.6113C177.332 48.0378 176.986 47.7228 176.066 47.4959L174.919 47.206C173.747 46.9098 173.167 46.3553 173.167 45.4604ZM179.872 51.945H179.217L179.759 49.21H180.647L179.872 51.945ZM184.939 47.9496H185.802C185.897 49.0398 186.924 49.7834 188.348 49.7834C189.709 49.7834 190.686 49.0398 190.686 48.0189C190.686 47.1682 190.1 46.6641 188.751 46.3238L187.623 46.0339C185.941 45.6053 185.191 44.8932 185.191 43.6959C185.191 42.2276 186.514 41.1815 188.304 41.1815C190.075 41.1815 191.373 42.2276 191.423 43.6707H190.56C190.478 42.6435 189.57 41.9629 188.279 41.9629C187.018 41.9629 186.086 42.6624 186.086 43.6644C186.086 44.4458 186.653 44.9059 187.989 45.2461L188.972 45.4982C190.799 45.9583 191.568 46.6577 191.568 47.9244C191.568 49.5188 190.283 50.5649 188.272 50.5649C186.369 50.5649 185.033 49.5125 184.939 47.9496ZM192.791 50.4199V40.9294H193.623V44.8995H193.641C194.02 44.0551 194.795 43.5573 195.885 43.5573C197.372 43.5573 198.311 44.5529 198.311 46.0717V50.4199H197.479V46.204C197.479 45.0193 196.811 44.3009 195.652 44.3009C194.423 44.3009 193.623 45.1705 193.623 46.4624V50.4199H192.791ZM201.941 49.7645C203.157 49.7645 204.083 48.939 204.083 47.8677V47.1178L202.098 47.2564C200.958 47.332 200.353 47.7732 200.353 48.5357C200.353 49.2667 200.996 49.7645 201.941 49.7645ZM201.777 50.4955C200.422 50.4955 199.502 49.7015 199.502 48.5294C199.502 47.3699 200.372 46.6956 201.998 46.5821L204.083 46.4435V45.8637C204.083 44.8743 203.46 44.3009 202.363 44.3009C201.418 44.3009 200.756 44.7861 200.605 45.5927H199.805C199.874 44.4017 200.945 43.5573 202.369 43.5573C203.926 43.5573 204.915 44.4269 204.915 45.7944V50.4199H204.121V49.1218H204.102C203.737 49.9473 202.817 50.4955 201.777 50.4955ZM209.535 43.5573C211.249 43.5573 212.427 44.9563 212.427 47.0233C212.427 49.0965 211.255 50.4955 209.547 50.4955C208.457 50.4955 207.606 49.9032 207.228 49.0209H207.209V52.6697H206.377V43.6329H207.165V45.0382H207.184C207.543 44.1748 208.457 43.5573 209.535 43.5573ZM209.39 49.7456C210.7 49.7456 211.576 48.6617 211.576 47.0296C211.576 45.3974 210.7 44.3009 209.39 44.3009C208.098 44.3009 207.203 45.4163 207.203 47.0233C207.203 48.6428 208.098 49.7456 209.39 49.7456ZM213.65 50.4199V43.6329H214.481V50.4199H213.65ZM214.066 42.2906C213.757 42.2906 213.498 42.0322 213.498 41.7297C213.498 41.4147 213.757 41.1626 214.066 41.1626C214.374 41.1626 214.626 41.4147 214.626 41.7297C214.626 42.0322 214.374 42.2906 214.066 42.2906ZM216.044 50.4199V43.6329H216.826V44.8995H216.851C217.229 44.0551 217.992 43.5573 219.088 43.5573C220.582 43.5573 221.495 44.5151 221.495 46.0528V50.4199H220.664V46.1851C220.664 44.9878 220.008 44.3009 218.855 44.3009C217.645 44.3009 216.876 45.1642 216.876 46.4309V50.4199H216.044ZM225.636 49.7015C226.946 49.7015 227.841 48.605 227.841 47.0107C227.841 45.4037 226.946 44.3009 225.636 44.3009C224.337 44.3009 223.474 45.3848 223.474 47.0107C223.474 48.6302 224.337 49.7015 225.636 49.7015ZM225.692 52.7831C224.193 52.7831 223.128 52.0836 222.957 51.0438H223.827C223.991 51.6488 224.728 52.0521 225.743 52.0521C227.003 52.0521 227.841 51.403 227.841 50.3569V48.9768H227.822C227.444 49.8528 226.575 50.4514 225.491 50.4514C223.783 50.4514 222.623 49.065 222.623 47.0107C222.623 44.9374 223.783 43.5573 225.51 43.5573C226.594 43.5573 227.469 44.1496 227.866 45.0382H227.879V43.6329H228.673V50.2939C228.673 51.8504 227.507 52.7831 225.692 52.7831ZM233.992 50.4199H233.135V41.3264H238.529V42.1079H233.992V45.5234H238.164V46.2922H233.992V50.4199ZM245.02 43.6329V50.4199H244.232V49.147H244.213C243.842 49.9788 243.029 50.4955 241.957 50.4955C240.476 50.4955 239.563 49.5377 239.563 48.0063V43.6329H240.394V47.8677C240.394 49.0776 241.044 49.7456 242.19 49.7456C243.375 49.7456 244.182 48.9075 244.182 47.6219V43.6329H245.02ZM246.885 42.007H247.717V43.6329H249.059V44.3324H247.717V48.7184C247.717 49.4242 247.994 49.7267 248.625 49.7267C248.713 49.7267 249.04 49.7078 249.091 49.7015V50.4136C249.003 50.4388 248.637 50.4577 248.461 50.4577C247.339 50.4577 246.885 49.9725 246.885 48.7499V44.3324H245.915V43.6329H246.885V42.007ZM255.708 43.6329V50.4199H254.92V49.147H254.901C254.529 49.9788 253.716 50.4955 252.645 50.4955C251.164 50.4955 250.25 49.5377 250.25 48.0063V43.6329H251.082V47.8677C251.082 49.0776 251.731 49.7456 252.878 49.7456C254.063 49.7456 254.87 48.9075 254.87 47.6219V43.6329H255.708ZM257.208 50.4199V43.6329H257.989V44.8365H258.014C258.247 44.0299 258.89 43.5573 259.735 43.5573C259.955 43.5573 260.157 43.5951 260.264 43.6266V44.4521C260.151 44.4017 259.911 44.3576 259.621 44.3576C258.657 44.3576 258.039 45.1138 258.039 46.2103V50.4199H257.208ZM263.484 44.2946C262.268 44.2946 261.411 45.202 261.335 46.5506H265.558C265.545 45.202 264.713 44.2946 263.484 44.2946ZM265.513 48.4979H266.339C266.137 49.6574 265.022 50.4955 263.547 50.4955C261.669 50.4955 260.472 49.1785 260.472 47.0422C260.472 44.9374 261.669 43.5573 263.497 43.5573C265.28 43.5573 266.427 44.8491 266.427 46.8657V47.2312H261.335V47.2753C261.335 48.813 262.218 49.7582 263.566 49.7582C264.587 49.7582 265.312 49.2415 265.513 48.4979ZM267.454 45.4604C267.454 44.3387 268.494 43.5573 269.893 43.5573C271.267 43.5573 272.263 44.3765 272.332 45.5423H271.532C271.45 44.7735 270.826 44.2631 269.868 44.2631C268.96 44.2631 268.28 44.7294 268.28 45.4163C268.28 45.9709 268.683 46.2922 269.547 46.5065L270.586 46.7586C271.948 47.0989 272.464 47.5904 272.464 48.5546C272.464 49.7015 271.374 50.4955 269.849 50.4955C268.393 50.4955 267.347 49.6637 267.253 48.5105H268.097C268.198 49.2856 268.872 49.796 269.899 49.796C270.914 49.796 271.62 49.3297 271.62 48.6113C271.62 48.0378 271.273 47.7228 270.353 47.4959L269.206 47.206C268.034 46.9098 267.454 46.3553 267.454 45.4604Z" fill="#E2E2E2"/>
</svg>
